<?xml version="1.0" encoding="utf-8"?>
<!-- Generator: Adobe Illustrator 23.0.3, SVG Export Plug-In . SVG Version: 6.00 Build 0)  -->
<svg version="1.1" id="Capa_1" xmlns="http://www.w3.org/2000/svg" xmlns:xlink="http://www.w3.org/1999/xlink" x="0px" y="0px"
	 viewBox="0 0 36 36" style="enable-background:new 0 0 36 36;" xml:space="preserve">
<style type="text/css">
	.st0{fill:#212121;}
</style>
<path class="st0" d="M18,3C9.7,3,3,9.7,3,18c0,8.3,6.7,15,15,15c8.3,0,15-6.7,15-15C33,9.7,26.3,3,18,3z M21.5,12.9
	c0,0.1-0.1,0.2-0.2,0.2h-1.5c-0.4,0-0.7,0.3-0.7,0.7v1.6h2.1c0.1,0,0.2,0.1,0.2,0.2l-0.2,2.2c0,0.1-0.1,0.2-0.2,0.2h-2v7.4
	c0,0.1-0.1,0.2-0.2,0.2h-2.7c-0.1,0-0.2-0.1-0.2-0.2v-7.4h-1.3c-0.1,0-0.2-0.1-0.2-0.2v-2.2c0-0.1,0.1-0.2,0.2-0.2H16v-2.1
	c0-1.5,1.2-2.7,2.7-2.7h2.5c0.1,0,0.2,0.1,0.2,0.2V12.9z"/>
</svg>
