<?xml version="1.0" encoding="utf-8"?>
<!-- Generator: Adobe Illustrator 23.0.3, SVG Export Plug-In . SVG Version: 6.00 Build 0)  -->
<svg version="1.1" id="Capa_1" xmlns="http://www.w3.org/2000/svg" xmlns:xlink="http://www.w3.org/1999/xlink" x="0px" y="0px"
	 viewBox="0 0 36 36" style="enable-background:new 0 0 36 36;" xml:space="preserve">
<style type="text/css">
	.st0{fill:#212121;}
</style>
<g>
	<path class="st0" d="M18,3C9.7,3,3,9.7,3,18c0,8.3,6.7,15,15,15s15-6.7,15-15C33,9.7,26.3,3,18,3z M25.5,21c0,2.5-2,4.5-4.5,4.5h-6
		c-2.5,0-4.5-2-4.5-4.5v-6c0-2.5,2-4.5,4.5-4.5h6c2.5,0,4.5,2,4.5,4.5V21z"/>
	<g>
		<g>
			<path class="st0" d="M21,11.9h-6c-1.7,0-3.1,1.4-3.1,3.1v6c0,1.7,1.4,3.1,3.1,3.1h6c1.7,0,3.1-1.4,3.1-3.1v-6
				C24.1,13.3,22.7,11.9,21,11.9z M18.1,21.7c-2,0-3.7-1.7-3.7-3.7c0-2,1.7-3.7,3.7-3.7s3.7,1.6,3.7,3.7
				C21.8,20,20.1,21.7,18.1,21.7z M22,14.9c-0.5,0-0.9-0.4-0.9-0.9c0-0.5,0.4-0.9,0.9-0.9c0.5,0,0.9,0.4,0.9,0.9
				C22.8,14.5,22.5,14.9,22,14.9z"/>
			<path class="st0" d="M20.4,18c0,1.3-1.1,2.4-2.4,2.4c-1.3,0-2.4-1.1-2.4-2.4s1.1-2.4,2.4-2.4C19.4,15.6,20.4,16.7,20.4,18z"/>
		</g>
	</g>
</g>
</svg>
