<?xml version="1.0" encoding="utf-8"?>
<!-- Generator: Adobe Illustrator 23.0.3, SVG Export Plug-In . SVG Version: 6.00 Build 0)  -->
<svg version="1.1" id="Capa_1" xmlns="http://www.w3.org/2000/svg" xmlns:xlink="http://www.w3.org/1999/xlink" x="0px" y="0px"
	 viewBox="0 0 800 800" style="enable-background:new 0 0 800 800;" xml:space="preserve">
<style type="text/css">
	.st0{fill:#E9C554;}
	.st1{fill:#DD9835;}
	.st2{enable-background:new    ;}
</style>
<g>
	<path d="M400,113.7c-158.2,0-286.4,128.2-286.4,286.4S241.8,686.4,400,686.4S686.4,558.2,686.4,400S558.1,113.7,400,113.7z
		 M400,620.3c-121.6,0-220.2-98.6-220.2-220.2S278.4,179.9,400,179.9s220.2,98.6,220.2,220.2S521.6,620.3,400,620.3z"/>
	<circle class="st0" cx="400" cy="400.1" r="220.2"/>
	<g>
		<path d="M400,338.8c-88.2,0-159.7,52.1-159.7,116.3S311.8,571.3,400,571.3S559.7,519.2,559.7,455S488.2,338.8,400,338.8z
			 M400,539.2c-63.8,0-115.5-37.6-115.5-84.1c0-46.4,51.7-84.1,115.5-84.1s115.4,37.6,115.5,84.1C515.5,501.5,463.8,539.2,400,539.2
			z"/>
		<path d="M515.5,455.1c0,46.4-51.7,84.1-115.5,84.1s-115.5-37.6-115.5-84.1c0-46.4,51.7-84.1,115.5-84.1S515.4,408.6,515.5,455.1z"
			/>
		<path class="st1" d="M400,371c-63.8,0-115.5,37.7-115.5,84.1c0,46.5,51.7,84.1,115.5,84.1s115.5-37.7,115.5-84.1
			C515.4,408.6,463.8,371,400,371z M358.8,489c-10.3,0-18.7-15.2-18.7-34s8.4-34,18.7-34s18.7,15.2,18.7,34S369.2,489,358.8,489z
			 M441.2,489c-10.3,0-18.7-15.2-18.7-34s8.4-34,18.7-34s18.7,15.2,18.7,34S451.5,489,441.2,489z"/>
	</g>
</g>
<g>
	<g class="st2">
		<path d="M-1456.9,450.5l-1.6,5.5h-82.9l2.1-5.5c8.3-0.2,13.8-0.9,16.5-2.1c4.4-1.7,7.6-4,9.7-7c3.3-4.7,6.6-13,10.1-25l35.1-121.5
			c3-10.1,4.5-17.7,4.5-22.9c0-2.6-0.6-4.8-1.9-6.5c-1.3-1.8-3.2-3.1-5.9-4.1c-2.6-0.9-7.7-1.4-15.4-1.4l1.8-5.5h77.8l-1.6,5.5
			c-6.3-0.1-11,0.6-14.1,2.1c-4.5,2-7.8,4.8-10.2,8.5c-2.3,3.7-5.3,11.8-9,24.4l-34.9,121.5c-3.2,11.2-4.8,18.3-4.8,21.4
			c0,2.5,0.6,4.6,1.9,6.3c1.2,1.7,3.2,3.1,5.9,4C-1471.2,449.1-1465.5,449.9-1456.9,450.5z"/>
		<path d="M-1378.4,321.5l-19.8,67.6c18.5-27.6,32.7-45.8,42.6-54.5s19.3-13.1,28.4-13.1c5,0,9,1.6,12.3,4.9
			c3.2,3.3,4.8,7.5,4.8,12.8c0,5.9-1.4,13.9-4.3,23.8l-18.1,62.5c-2.1,7.2-3.1,11.6-3.1,13.2c0,1.4,0.4,2.6,1.2,3.5
			c0.8,0.9,1.6,1.4,2.5,1.4c1.2,0,2.6-0.6,4.3-1.9c5.2-4.2,11-10.5,17.2-19l4.6,2.8c-9.2,13.2-17.9,22.6-26.1,28.2
			c-5.7,3.9-10.9,5.8-15.4,5.8c-3.7,0-6.6-1.1-8.8-3.3c-2.2-2.2-3.3-5.2-3.3-9c0-4.8,1.7-12.9,5.1-24.5l17.2-59.7
			c2.2-7.4,3.3-13.2,3.3-17.4c0-2-0.6-3.6-1.9-4.8c-1.3-1.2-2.9-1.9-4.8-1.9c-2.8,0-6.1,1.2-10,3.6c-7.3,4.5-15,11.8-22.9,22.1
			c-7.9,10.2-16.3,23.3-25.1,39.3c-4.7,8.4-8.5,17.6-11.6,27.6l-7.4,24.5h-22.3l27-93c3.2-11.2,4.8-17.9,4.8-20.2
			c0-2.2-0.9-4.1-2.6-5.7s-3.9-2.5-6.5-2.5c-1.2,0-3.3,0.2-6.2,0.6l-5.6,0.9l-0.9-5.3L-1378.4,321.5z"/>
		<path d="M-1218.2,325.1l-2.7,9.8h-21.7l-16.3,64.9c-7.2,28.6-14.5,50.8-21.8,66.4c-10.4,22.1-21.6,37.3-33.6,45.8
			c-9.1,6.4-18.2,9.7-27.3,9.7c-5.9,0-11-1.8-15.2-5.3c-3.1-2.5-4.6-5.7-4.6-9.7c0-3.2,1.3-5.9,3.8-8.2c2.5-2.3,5.6-3.5,9.3-3.5
			c2.7,0,4.9,0.8,6.8,2.5c1.8,1.7,2.7,3.6,2.7,5.8c0,2.2-1,4.2-3.1,6.1c-1.6,1.4-2.4,2.4-2.4,3.1c0,0.9,0.3,1.6,1,2.1
			c0.9,0.7,2.3,1,4.2,1c4.3,0,8.7-1.3,13.4-4c4.7-2.7,8.9-6.7,12.6-12s7.1-12.9,10.4-22.9c1.4-4.2,5.1-17.9,11.1-41.1l25.8-100.6
			h-25.8l2.1-9.8c8.2,0,14-0.6,17.2-1.7c3.3-1.1,6.3-3.3,9-6.5c2.7-3.2,6.3-9.2,10.6-18c5.8-11.9,11.4-21.1,16.8-27.6
			c7.3-8.8,15-15.4,23.1-19.8c8.1-4.4,15.7-6.6,22.8-6.6c7.5,0,13.6,1.9,18.1,5.7c4.6,3.8,6.8,7.9,6.8,12.4c0,3.5-1.1,6.4-3.4,8.8
			c-2.3,2.4-5.2,3.6-8.8,3.6c-3.1,0-5.6-0.9-7.5-2.7c-1.9-1.8-2.9-3.9-2.9-6.4c0-1.6,0.6-3.5,1.9-5.9c1.3-2.3,1.9-3.9,1.9-4.7
			c0-1.4-0.4-2.4-1.3-3.1c-1.3-1-3.2-1.5-5.6-1.5c-6.2,0-11.8,2-16.8,5.9c-6.6,5.2-12.6,13.5-17.8,24.7c-2.7,5.8-7.6,20.3-14.7,43.5
			h21.9V325.1z"/>
		<path d="M-1098.1,368c0,14.9-3.9,29.6-11.8,44.1c-7.9,14.6-18.8,26.1-32.9,34.6s-27.7,12.8-41,12.8c-13.6,0-24.6-4.3-33.2-13
			s-12.8-19.9-12.8-33.6c0-14.6,4.2-29.2,12.6-43.8c8.4-14.7,19.6-26.2,33.6-34.8c14-8.5,27.6-12.8,40.6-12.8
			c13.1,0,23.8,4.3,32.3,12.9C-1102.3,343.1-1098.1,354.3-1098.1,368z M-1122.7,357.8c0-9.2-2.3-16.3-6.8-21.2
			c-4.5-4.9-10.3-7.4-17.5-7.4c-14.6,0-28,10.4-40.2,31.3c-12.2,20.8-18.3,41.6-18.3,62.2c0,9.4,2.4,16.7,7.1,21.8
			c4.8,5.1,10.7,7.6,18,7.6c14,0,27.1-10.4,39.3-31.1C-1128.8,400.2-1122.7,379.2-1122.7,357.8z"/>
	</g>
	<g>
		<path d="M-1802.5,180.6c-121.6,0-220.2,98.6-220.2,220.2s98.6,220.2,220.2,220.2s220.2-98.6,220.2-220.2
			S-1680.9,180.6-1802.5,180.6z M-1802.5,571.9c-88.2,0-159.7-52.1-159.7-116.3s71.5-116.3,159.7-116.3s159.7,52.1,159.7,116.3
			S-1714.3,571.9-1802.5,571.9z"/>
		<g>
			<path d="M-1802.5,371.7c-63.8,0-115.5,37.7-115.5,84.1c0,46.5,51.7,84.1,115.5,84.1s115.5-37.7,115.5-84.1
				C-1687.1,409.3-1738.7,371.7-1802.5,371.7z M-1843.7,489.7c-10.3,0-18.7-15.2-18.7-34s8.4-34,18.7-34c10.3,0,18.7,15.2,18.7,34
				S-1833.3,489.7-1843.7,489.7z M-1761.3,489.7c-10.3,0-18.7-15.2-18.7-34s8.4-34,18.7-34c10.3,0,18.7,15.2,18.7,34
				S-1751,489.7-1761.3,489.7z"/>
		</g>
	</g>
	<g>
		<g class="st2">
			<path d="M-1075.8,428c0-15.6-0.5-28.1-1-39.7h19.8l1,20.8h0.5c9-14.8,23.3-23.6,43.2-23.6c29.4,0,51.5,24.8,51.5,61.7
				c0,43.7-26.6,65.3-55.2,65.3c-16.1,0-30.1-7-37.4-19.1h-0.5v66h-21.8L-1075.8,428L-1075.8,428z M-1053.9,460.4c0,3.3,0.5,6.3,1,9
				c4,15.3,17.3,25.9,33.1,25.9c23.3,0,36.9-19.1,36.9-46.9c0-24.3-12.8-45.2-36.1-45.2c-15.1,0-29.1,10.8-33.4,27.4
				c-0.8,2.8-1.5,6-1.5,9V460.4z"/>
			<path d="M-829.8,448.1c0,44.9-31.1,64.5-60.5,64.5c-32.9,0-58.2-24.1-58.2-62.5c0-40.7,26.6-64.5,60.2-64.5
				C-853.4,385.6-829.8,410.9-829.8,448.1z M-926.2,449.3c0,26.6,15.3,46.7,36.9,46.7c21.1,0,36.9-19.8,36.9-47.2
				c0-20.6-10.3-46.7-36.4-46.7C-914.9,402.1-926.2,426.2-926.2,449.3z"/>
			<path d="M-808.7,426.2c0-14.3-0.3-26.6-1-37.9h19.3l0.8,23.8h1c5.5-16.3,18.8-26.6,33.6-26.6c2.5,0,4.3,0.3,6.3,0.8v20.8
				c-2.3-0.5-4.5-0.8-7.5-0.8c-15.6,0-26.6,11.8-29.6,28.4c-0.5,3-1,6.5-1,10.3v64.8h-21.8L-808.7,426.2L-808.7,426.2z"/>
			<path d="M-649.3,505.3c-5.8,3-18.6,7-34.9,7c-36.6,0-60.5-24.8-60.5-62c0-37.4,25.6-64.5,65.3-64.5c13.1,0,24.6,3.3,30.6,6.3
				l-5,17.1c-5.3-3-13.6-5.8-25.6-5.8c-27.9,0-42.9,20.6-42.9,45.9c0,28.1,18.1,45.4,42.2,45.4c12.6,0,20.8-3.3,27.1-6L-649.3,505.3
				z"/>
			<path d="M-605.6,354.2c0.3,7.5-5.3,13.6-14.1,13.6c-7.8,0-13.3-6-13.3-13.6c0-7.8,5.8-13.8,13.8-13.8
				C-610.9,340.4-605.6,346.4-605.6,354.2z M-630.2,509.8V388.3h22.1v121.5H-630.2z"/>
			<path d="M-578.3,421.2c0-12.6-0.3-22.8-1-32.9h19.6l1.3,20.1h0.5c6-11.5,20.1-22.8,40.2-22.8c16.8,0,42.9,10,42.9,51.7v72.5
				h-22.1v-70c0-19.6-7.3-35.9-28.1-35.9c-14.6,0-25.9,10.3-29.6,22.6c-1,2.8-1.5,6.5-1.5,10.3v73h-22.1L-578.3,421.2L-578.3,421.2z
				"/>
			<path d="M-335.8,448.1c0,44.9-31.1,64.5-60.5,64.5c-32.9,0-58.2-24.1-58.2-62.5c0-40.7,26.6-64.5,60.2-64.5
				C-359.4,385.6-335.8,410.9-335.8,448.1z M-432.2,449.3c0,26.6,15.3,46.7,36.9,46.7c21.1,0,36.9-19.8,36.9-47.2
				c0-20.6-10.3-46.7-36.4-46.7C-420.9,402.1-432.2,426.2-432.2,449.3z"/>
			<path d="M-317.8,487.2c6.5,4.3,18.1,8.8,29.1,8.8c16.1,0,23.6-8,23.6-18.1c0-10.5-6.3-16.3-22.6-22.3
				c-21.8-7.8-32.1-19.8-32.1-34.4c0-19.6,15.8-35.6,41.9-35.6c12.3,0,23.1,3.5,29.9,7.5l-5.5,16.1c-4.8-3-13.6-7-24.8-7
				c-13.1,0-20.3,7.5-20.3,16.6c0,10,7.3,14.6,23.1,20.6c21.1,8,31.9,18.6,31.9,36.6c0,21.3-16.6,36.4-45.4,36.4
				c-13.3,0-25.6-3.3-34.1-8.3L-317.8,487.2z"/>
		</g>
	</g>
	<g>
		<g>
			<g class="st2">
				<path d="M-184.3,371.5c0,11.4-8.9,20.3-20.6,20.3c-11.5,0-20.7-8.9-20.7-20.3c0-11.1,9.2-20.1,20.7-20.1
					C-193.2,351.5-184.3,360.4-184.3,371.5z M-220.4,371.5c0,8.9,6.6,16,15.7,16c8.8,0,15.3-7.1,15.3-15.9c0-8.9-6.5-16.2-15.4-16.2
					C-213.7,355.4-220.4,362.7-220.4,371.5z M-208.1,382.1h-4.7V362c1.8-0.4,4.4-0.6,7.7-0.6c3.8,0,5.5,0.6,7,1.5
					c1.1,0.9,2,2.4,2,4.4c0,2.2-1.7,3.9-4.2,4.7v0.2c2,0.7,3.1,2.2,3.7,4.9c0.6,3.1,1,4.3,1.5,5h-5c-0.6-0.7-1-2.6-1.6-4.9
					c-0.4-2.2-1.6-3.2-4.2-3.2h-2.2V382.1z M-207.9,370.7h2.2c2.6,0,4.7-0.9,4.7-2.9c0-1.8-1.3-3.1-4.3-3.1c-1.2,0-2.1,0.1-2.6,0.2
					C-207.9,364.9-207.9,370.7-207.9,370.7z"/>
			</g>
		</g>
	</g>
</g>
</svg>
