<svg xmlns="http://www.w3.org/2000/svg" width="117.861" height="121.897" viewBox="0 0 117.861 121.897"><g transform="translate(0 98.45)"><path d="M482.052,323.476a6.227,6.227,0,0,0,.863.281.446.446,0,0,0,.37-.177.844.844,0,0,0,.174-.372h.337v2.831h-.307a6.6,6.6,0,0,0-.891-1.454,2.505,2.505,0,0,0-1.924-.981,1.773,1.773,0,0,0-1.726,1.049,6.5,6.5,0,0,0-.511,2.816,6.425,6.425,0,0,0,.3,2.139,2.084,2.084,0,0,0,2.084,1.572,3.133,3.133,0,0,0,1.735-.52,6.5,6.5,0,0,0,1.086-.963l.36.3a6.884,6.884,0,0,1-1.247,1.147,3.779,3.779,0,0,1-2.128.632,4.388,4.388,0,0,1-3-1.064,4,4,0,0,1-1.342-3.168,4.217,4.217,0,0,1,1.283-3.2,4.126,4.126,0,0,1,2.955-1.147A4.469,4.469,0,0,1,482.052,323.476Z" transform="translate(-476.284 -323.183)" fill="#767676"/><path d="M502.09,331.841v-.307a1.719,1.719,0,0,0,.739-.142.741.741,0,0,0,.337-.709V324.82a.726.726,0,0,0-.349-.71,1.865,1.865,0,0,0-.727-.141v-.307h6.974V326.1h-.3a2.612,2.612,0,0,0-.783-1.6,3.413,3.413,0,0,0-2.012-.431,1.356,1.356,0,0,0-.706.115.554.554,0,0,0-.151.458v2.8a1.893,1.893,0,0,0,1.4-.375,2.9,2.9,0,0,0,.561-1.415h.307v4.09h-.307a2.6,2.6,0,0,0-.529-1.457,1.935,1.935,0,0,0-1.433-.423V330.8a.6.6,0,0,0,.2.523,1.577,1.577,0,0,0,.813.139,3.571,3.571,0,0,0,1.891-.449,3.726,3.726,0,0,0,1.3-1.684h.337l-.49,2.518Z" transform="translate(-493.597 -323.496)" fill="#767676"/><path d="M526.621,331.534a1.169,1.169,0,0,0,.868-.257,1.1,1.1,0,0,0,.2-.706v-5.733q-.555-.62-.685-.73a.677.677,0,0,0-.355-.139v-.307h2.565l4.16,5.056h.059v-3.555a1.358,1.358,0,0,0-.223-.878,1.3,1.3,0,0,0-.893-.316v-.307h2.6v.307a1.727,1.727,0,0,0-.759.252.934.934,0,0,0-.192.711v7.133h-.337l-5.325-6.471h-.083v4.746a1.5,1.5,0,0,0,.154.79,1.163,1.163,0,0,0,.993.4v.307h-2.742Z" transform="translate(-510.056 -323.496)" fill="#767676"/><path d="M553.533,323.662h7.287l.012,2.441h-.349a2.218,2.218,0,0,0-.981-1.772,3.026,3.026,0,0,0-1.359-.278v6.376a1.231,1.231,0,0,0,.233.887,1.5,1.5,0,0,0,.972.219v.307h-4.314v-.307a1.422,1.422,0,0,0,.943-.222,1.233,1.233,0,0,0,.233-.884v-6.376a3.1,3.1,0,0,0-1.359.278,2.054,2.054,0,0,0-.981,1.772h-.349Z" transform="translate(-528.103 -323.496)" fill="#767676"/><path d="M577.711,331.534a1.393,1.393,0,0,0,.839-.231,1.2,1.2,0,0,0,.224-.874v-5.354a1.153,1.153,0,0,0-.266-.911,1.686,1.686,0,0,0-.8-.194v-.307h3.894a6.253,6.253,0,0,1,1.962.254,1.879,1.879,0,0,1,1.454,1.85,1.834,1.834,0,0,1-.762,1.554,2.974,2.974,0,0,1-1.232.544l2.572,3.445a.5.5,0,0,0,.213.186.942.942,0,0,0,.278.056v.29h-2.525l-2.824-3.783h0v2.37a.886.886,0,0,0,1.064,1.105v.307h-4.09Zm4.725-4.2q.511-.316.511-1.463a2.615,2.615,0,0,0-.2-1.111,1.244,1.244,0,0,0-1.23-.691,1.115,1.115,0,0,0-.635.121.483.483,0,0,0-.151.4v3.079A3.491,3.491,0,0,0,582.436,327.335Z" transform="translate(-544.332 -323.496)" fill="#767676"/><path d="M604.343,331.2a.908.908,0,0,0,.7-.4,5.484,5.484,0,0,0,.491-1.016l2.689-6.625h.337l2.7,6.359a8.557,8.557,0,0,0,.68,1.38.714.714,0,0,0,.638.3v.307h-3.918V331.2a2.76,2.76,0,0,0,.777-.1q.186-.076.186-.39a1.564,1.564,0,0,0-.094-.431q-.059-.171-.16-.414l-.308-.733h-2.717q-.267.721-.343.94a2.406,2.406,0,0,0-.16.68q0,.26.349.378a2.318,2.318,0,0,0,.621.071v.307h-2.47Zm4.543-2.547-1.164-2.8h-.1l-1.093,2.8Z" transform="translate(-562.2 -323.159)" fill="#767676"/><path d="M630.9,331.534a1.766,1.766,0,0,0,.709-.13.739.739,0,0,0,.361-.722V324.82a.729.729,0,0,0-.343-.71,1.865,1.865,0,0,0-.727-.141v-.307h4.232v.307a1.91,1.91,0,0,0-.984.206q-.245.182-.245.9v5.72a.58.58,0,0,0,.21.533,1.729,1.729,0,0,0,.818.13,3.3,3.3,0,0,0,1.835-.481,3.79,3.79,0,0,0,1.279-1.876h.355l-.491,2.742H630.9Z" transform="translate(-580.019 -323.496)" fill="#767676"/></g><g transform="translate(98.847 113.834)"><path d="M776.648,374.937h.315a3.4,3.4,0,0,0,.842,1.779,1.874,1.874,0,0,0,1.332.555,1.19,1.19,0,0,0,1.345-1.184,1.061,1.061,0,0,0-.322-.8,3.943,3.943,0,0,0-.861-.528l-.695-.352a4.613,4.613,0,0,1-1.461-1.035,1.911,1.911,0,0,1-.425-1.264,2.322,2.322,0,0,1,.564-1.493,2.094,2.094,0,0,1,1.727-.694,3.658,3.658,0,0,1,1.146.181,4.251,4.251,0,0,0,.632.181.273.273,0,0,0,.246-.1.894.894,0,0,0,.11-.274h.325v2.377h-.3a3.326,3.326,0,0,0-.753-1.423,1.7,1.7,0,0,0-1.31-.6,1.188,1.188,0,0,0-.857.3,1.081,1.081,0,0,0-.02,1.507,6.893,6.893,0,0,0,1.3.768l.806.405a3.186,3.186,0,0,1,.859.6,2.078,2.078,0,0,1,.6,1.5,2.332,2.332,0,0,1-.643,1.558,2.6,2.6,0,0,1-2.058.732,3.631,3.631,0,0,1-.658-.061,3.536,3.536,0,0,1-.658-.189l-.21-.08c-.049-.014-.1-.026-.142-.035a.616.616,0,0,0-.115-.014.252.252,0,0,0-.231.1,1,1,0,0,0-.11.28h-.315Z" transform="translate(-776.648 -369.905)" fill="#767676"/><path d="M796.84,388.072a.926.926,0,1,1-.269.653A.89.89,0,0,1,796.84,388.072Z" transform="translate(-790.014 -381.913)" fill="#767676"/><path d="M802.823,377.317a.821.821,0,0,0,.635-.357,5.007,5.007,0,0,0,.443-.917l2.425-5.975h.3l2.436,5.735a7.729,7.729,0,0,0,.613,1.245.644.644,0,0,0,.576.27v.277H806.72v-.277a2.5,2.5,0,0,0,.7-.091q.168-.069.168-.352a1.415,1.415,0,0,0-.085-.389q-.053-.154-.144-.373l-.277-.661H804.63q-.24.651-.309.848a2.184,2.184,0,0,0-.144.613q0,.235.315.341a2.077,2.077,0,0,0,.56.065v.277h-2.228Zm4.1-2.3-1.05-2.526h-.092l-.986,2.526Z" transform="translate(-794.209 -370.014)" fill="#767676"/><path d="M829.09,388.072a.926.926,0,1,1-.27.653A.889.889,0,0,1,829.09,388.072Z" transform="translate(-811.651 -381.913)" fill="#767676"/></g><g transform="translate(0.162 110.127)"><path d="M478.373,360.434a5.571,5.571,0,0,1,4.226-1.744,5.785,5.785,0,0,1,2.052.385,5.469,5.469,0,0,0,1.274.385.542.542,0,0,0,.43-.187,1.467,1.467,0,0,0,.268-.568h.463v3.885h-.422a9.082,9.082,0,0,0-1.225-2,3.445,3.445,0,0,0-2.645-1.347,2.471,2.471,0,0,0-2.344,1.4,8.526,8.526,0,0,0-.738,3.926,9.458,9.458,0,0,0,.685,3.7,2.6,2.6,0,0,0,2.649,1.626,1.792,1.792,0,0,0,1.428-.446,1.165,1.165,0,0,0,.211-.762V366.94a1,1,0,0,0-.463-.99,3.419,3.419,0,0,0-1.217-.162v-.422H488.7v.422a1.622,1.622,0,0,0-1.14.345,1.806,1.806,0,0,0-.28,1.172v2.117a7.321,7.321,0,0,1-1.785.681,10.34,10.34,0,0,1-2.758.341,5.807,5.807,0,0,1-4.421-1.744,5.717,5.717,0,0,1-1.541-4.088A5.859,5.859,0,0,1,478.373,360.434Z" transform="translate(-476.775 -358.674)" fill="#767676"/><path d="M515.1,369.673a1.249,1.249,0,0,0,.965-.544,7.611,7.611,0,0,0,.673-1.4l3.69-9.093h.462l3.707,8.728a11.771,11.771,0,0,0,.933,1.894.98.98,0,0,0,.876.41v.422h-5.378v-.422a3.783,3.783,0,0,0,1.067-.138q.256-.105.256-.535a2.154,2.154,0,0,0-.13-.592q-.081-.235-.219-.568l-.423-1.006h-3.73q-.365.99-.471,1.29a3.311,3.311,0,0,0-.219.933q0,.357.478.519a3.194,3.194,0,0,0,.852.1v.422H515.1Zm6.236-3.5-1.6-3.845H519.6l-1.5,3.845Z" transform="translate(-502.49 -358.641)" fill="#767676"/><path d="M551.459,370.136a1.607,1.607,0,0,0,1.193-.353,1.508,1.508,0,0,0,.268-.97v-7.868q-.763-.852-.941-1a.929.929,0,0,0-.487-.191v-.422h3.52l5.71,6.941h.081v-4.88a1.864,1.864,0,0,0-.307-1.2,1.78,1.78,0,0,0-1.226-.434v-.422h3.569v.422a2.371,2.371,0,0,0-1.042.347,1.278,1.278,0,0,0-.264.975v9.791h-.462l-7.308-8.882h-.114V368.5a2.057,2.057,0,0,0,.211,1.084,1.6,1.6,0,0,0,1.363.554v.422h-3.764Z" transform="translate(-526.881 -359.104)" fill="#767676"/><path d="M588.013,369.673a1.248,1.248,0,0,0,.965-.544,7.605,7.605,0,0,0,.673-1.4l3.691-9.093h.462l3.707,8.728a11.8,11.8,0,0,0,.933,1.894.981.981,0,0,0,.876.41v.422h-5.378v-.422a3.783,3.783,0,0,0,1.067-.138q.256-.105.256-.535a2.143,2.143,0,0,0-.13-.592q-.081-.235-.22-.568l-.423-1.006h-3.73q-.365.99-.471,1.29a3.313,3.313,0,0,0-.219.933q0,.357.479.519a3.188,3.188,0,0,0,.851.1v.422h-3.39Zm6.236-3.5-1.6-3.845h-.14l-1.5,3.845Z" transform="translate(-551.406 -358.641)" fill="#767676"/><path d="M624.246,370.136a2.515,2.515,0,0,0,.9-.179.937.937,0,0,0,.486-.917v-8.193a.927.927,0,0,0-.462-.892,2.552,2.552,0,0,0-.925-.2v-.422h5.078a6.294,6.294,0,0,1,4.688,1.639,5.467,5.467,0,0,1,1.468,4.007A5.362,5.362,0,0,1,634,368.8a5.908,5.908,0,0,1-4.51,1.76h-5.248Zm4.262-.365a.851.851,0,0,0,.71.227,3.133,3.133,0,0,0,2.425-1.042q.949-1.042.949-4a8.07,8.07,0,0,0-.511-3.026,2.864,2.864,0,0,0-2.79-2.036q-.649,0-.844.276a1.263,1.263,0,0,0-.13.689v8.177A1.385,1.385,0,0,0,628.508,369.771Z" transform="translate(-575.715 -359.104)" fill="#767676"/><path d="M660.824,370.557v-.422a2.361,2.361,0,0,0,1.014-.195,1.017,1.017,0,0,0,.462-.973v-8.047a1,1,0,0,0-.479-.975,2.559,2.559,0,0,0-1-.193v-.422H670.4v3.35h-.405a3.588,3.588,0,0,0-1.075-2.2,4.685,4.685,0,0,0-2.762-.592,1.858,1.858,0,0,0-.969.158.76.76,0,0,0-.207.629v3.845a2.6,2.6,0,0,0,1.923-.515,3.971,3.971,0,0,0,.771-1.943h.422v5.613h-.422a3.569,3.569,0,0,0-.726-2,2.655,2.655,0,0,0-1.967-.58v4.023a.822.822,0,0,0,.272.718,2.168,2.168,0,0,0,1.115.191,4.906,4.906,0,0,0,2.6-.616,5.114,5.114,0,0,0,1.785-2.312h.462l-.673,3.455Z" transform="translate(-600.255 -359.104)" fill="#767676"/><path d="M694.493,370.136a1.914,1.914,0,0,0,1.152-.317,1.65,1.65,0,0,0,.308-1.2V361.27a1.58,1.58,0,0,0-.365-1.251,2.314,2.314,0,0,0-1.095-.266v-.422h5.345a8.6,8.6,0,0,1,2.693.349,2.579,2.579,0,0,1,1.995,2.539,2.516,2.516,0,0,1-1.044,2.133,4.087,4.087,0,0,1-1.691.746l3.53,4.729a.685.685,0,0,0,.292.255,1.28,1.28,0,0,0,.381.077v.4h-3.466l-3.875-5.191h-.007v3.253a1.215,1.215,0,0,0,1.46,1.517v.422h-5.613Zm6.485-5.763q.7-.434.7-2.007a3.583,3.583,0,0,0-.268-1.525,1.707,1.707,0,0,0-1.687-.949,1.529,1.529,0,0,0-.872.166.662.662,0,0,0-.207.548v4.226A4.788,4.788,0,0,0,700.978,364.372Z" transform="translate(-622.844 -359.104)" fill="#767676"/><path d="M731.047,369.673a1.248,1.248,0,0,0,.965-.544,7.585,7.585,0,0,0,.673-1.4l3.691-9.093h.462l3.707,8.728a11.774,11.774,0,0,0,.933,1.894.981.981,0,0,0,.876.41v.422h-5.378v-.422a3.786,3.786,0,0,0,1.067-.138q.255-.105.256-.535a2.144,2.144,0,0,0-.13-.592q-.081-.235-.219-.568l-.423-1.006H733.8q-.365.99-.471,1.29a3.314,3.314,0,0,0-.219.933q0,.357.479.519a3.19,3.19,0,0,0,.852.1v.422h-3.391Zm6.236-3.5-1.6-3.845h-.14l-1.5,3.845Z" transform="translate(-647.368 -358.641)" fill="#767676"/></g><g transform="translate(19.261 0)"><path d="M700.135,137.707c-.7-1.642-2.3-2.214-3.61-3.135C697.033,136.436,698.616,137.034,700.135,137.707Z" transform="translate(-643.307 -98.184)" fill="#767676"/><path d="M609.108,109.546h11.667v7.009a23.586,23.586,0,0,1-17.41,7.83c-13.379,0-24.263-11.57-24.263-25.792S589.986,72.8,603.365,72.8a23.788,23.788,0,0,1,19.34,10.236h9.106c-5.368-10.73-16.1-18.068-28.447-18.068a30.716,30.716,0,0,0-6.187.631c.065,1.222,1.551,4.307,1.846,5.055a1.241,1.241,0,0,1-.34,1.43c-.028.033-.135.139-.274.265l.018-.022c-1.439.518-1.965,1.04-3.092.136a5.261,5.261,0,0,0-3.654-1.4,3.61,3.61,0,0,1-3.251-1.651,8.781,8.781,0,0,1-1.558-3.394c-.413-3.124-.532-6.288-.755-9.436-.005-.074.132-.158.2-.239,1.371,1.243,2.706,2.469,4.06,3.676s3.05,2.154,2.936,4.368a16.477,16.477,0,0,0,.171,2.2c-.75-.372-1.509-.73-2.246-1.126-.2-.107-.324-.345-.5-.5a10.21,10.21,0,0,0-1.558-1.261c-.907-.5-1.6-.049-1.293.91a8.347,8.347,0,0,0,1.7,3.4c2.293,2.267,5.517,2.59,8.518,3.742-.354-1.087-.678-1.936-.906-2.81-.856-3.281-1.622-6.586-2.539-9.85a7.663,7.663,0,0,0-3.316-4.477,15.3,15.3,0,0,1-2.5-1.788c-1.69-1.655-3.273-3.418-4.909-5.129a5.57,5.57,0,0,0-3.881-2.035,14.114,14.114,0,0,0-3.295.1c-2.221.474-4.654.711-6.538,1.826-2.945,1.744-4.722,4.711-5.856,7.962a2.308,2.308,0,0,0-.014,1.588c1.229,2.568.858,5.063-.1,7.588a18.913,18.913,0,0,0-.549,2.36c1.517-.152,2.757-.324,4-.387,1.333-.067,2.02.679,2.107,2.146a2.129,2.129,0,0,1-1.873,2.446c-.785.1-1.205-.257-1.042-.989a11.572,11.572,0,0,1,.81-1.962h-4.983c0,1.13.076,2.179-.022,3.212s-.538,2.067.193,3.173c1.236-2.241,2.2-2.753,3.891-2.026A18.124,18.124,0,0,1,568.5,73.93a5.93,5.93,0,0,0,2.284,1.059c.767.054,1.563-.515,2.369-.714a4.84,4.84,0,0,1,1.3.029,3.11,3.11,0,0,1-.231,1.148,2.712,2.712,0,0,1-3.32,1.139,24.985,24.985,0,0,1-3.455-1.537c-2.08-1.072-2.113-1.091-3.453.666-.039.051-.016.149-.045.515,1.1.586,2.292,1.245,3.5,1.867a5.979,5.979,0,0,1,2.775,2.194,3.384,3.384,0,0,1,.266.615,1.467,1.467,0,0,1-.69,1.752l0,0a19.337,19.337,0,0,1-5.274.749c-12.07,0-21.89-11.57-21.89-25.792s9.82-25.792,21.89-25.792c6.695,0,12.7,3.56,16.714,9.157h9.108C585.231,30.849,575.577,24,564.533,24c-16.388,0-29.721,15.084-29.721,33.623s13.333,33.623,29.721,33.623a26.159,26.159,0,0,0,7.777-1.155,35.062,35.062,0,0,0-1.041,8.5c0,18.54,14.4,33.623,32.1,33.623A31.487,31.487,0,0,0,627.719,120.5l.888-1.083v-17.7h-19.5Zm-29.1-53.733c2.627-.04,3.031.485,3.031.485a8.107,8.107,0,0,0-1.819,1.091c-.323.4-.889,1.94-4.2,1.253C577.017,58.643,577.381,55.854,580.008,55.814Z" transform="translate(-534.812 -24)" fill="#767676"/></g></svg>