<svg xmlns="http://www.w3.org/2000/svg" viewBox="0 0 681 202.78"><g id="Capa_2" data-name="Capa 2"><g id="Capa_1-2" data-name="Capa 1"><path d="M5,189s36-31,86,0,84,0,84,0,39-25,80,0,90,0,90,0,47-26,90,0,88,0,88,0,32-25,79,0,79,0,79,0V0H0V191Z" style="fill:#dd9835"/><g id="Group_3688" data-name="Group 3688"><g id="Group_3687" data-name="Group 3687"><g id="Group_3685" data-name="Group 3685"><path id="Path_1704" data-name="Path 1704" d="M59.55,157.89a2.37,2.37,0,0,0,.91,3.15c5.39,3,8.63,2.32,11.95,1.08,1.49,1.08,4.81,3.48,7,4.81a50.38,50.38,0,0,0,.09,16.93,2.23,2.23,0,0,0,2.24,1.91,1.46,1.46,0,0,0,.58-.08h.16A2.26,2.26,0,0,0,84.11,183a31.34,31.34,0,0,1-.58-4.73h0c-.58-8.8,1.66-17.26,3.9-23.15h0c.67-1.75,1.25-3.16,1.83-4.4,9,18.51,27.8,34.11,58.59,29.71a80.3,80.3,0,0,0,18.76-8.13h0c.08,0,.08-.09.16-.09h.09c.31-.15.61-.31.91-.49l.91-.67.09-.08,1.65-1.25,6.48-5.06.83-.66a36.11,36.11,0,0,0,6.64.66,38.15,38.15,0,0,0,4.4-.33c.49,7.3.33,14.94-.92,18.42h0a2.37,2.37,0,0,0,4.48,1.5c1.5-4.4,1.58-13.61,1.17-21a33,33,0,0,0,23.57-28.8L225.78,111a49.53,49.53,0,0,0,3.49-19.33V84a11.05,11.05,0,0,0-1.17-6.31,10.78,10.78,0,0,0-1.49-2.24v-.08a5.9,5.9,0,0,0-.66-.75c-.25-.25-.58-.49-.83-.74a.09.09,0,0,0-.09-.09l-1.57-1.32L209.93,61a3.54,3.54,0,0,0-3.24-.66,3.39,3.39,0,0,0-2.16,4.23l3.32,9.63.59,1.91-6.23,1.08-6.89,1.24A3.21,3.21,0,0,0,193,80a3.69,3.69,0,0,0-.58,1.49,3.39,3.39,0,0,0,2,3.65l16,7.3,1.66.75a.59.59,0,0,0,.33.17c.17.08.41.16.58.25l-8.3,12.53A32.9,32.9,0,0,0,184.37,99c-1,0-2.08.09-3.07.17,4.56-8.13,5.72-17.93,5.81-27.22l-3.9-1.33v1.41c-.17,13.2-2.49,22-8.55,28.63h0a32.42,32.42,0,0,0-14.61,9.46,62.6,62.6,0,0,1-19.25,2.58c-13.12,0-22.16-2.49-28.39-6.81a26.32,26.32,0,0,1-5.72-5.23c-.34-.49-.75-1-1.08-1.49a18.66,18.66,0,0,1-1.5-2.41c-4-7.3-5-16.43-5-25.81a41.4,41.4,0,0,1,.34-5.56c.08-.83.25-1.66.41-2.49h0c.17-.83.42-1.57.58-2.4a40.77,40.77,0,0,1,6.89-14.45c.17-.24.33-.41.5-.66.5-.66,1.08-1.33,1.66-2a16.92,16.92,0,0,1,1.66-1.83,43.5,43.5,0,0,1,4-3.57l2-1.49c.67-.5,1.33-.91,2-1.33a41.71,41.71,0,0,1,43.23,0c.67.42,1.33.92,2,1.33l2,1.49a43.5,43.5,0,0,1,4,3.57,46.19,46.19,0,0,1,6.31,7.64s3.65,4.48,6.39,15.6a43.43,43.43,0,0,0,3.9,2.08,30.78,30.78,0,0,0-.5-4.07c13-8.22,14.44-18.26,15.11-23.32v-.17c.58-3.73,4.81-8.88,6.47-10.54l2.41-2.49L207.19,25c-13.78-5.89-25.15-6.47-33.78-1.9A23.56,23.56,0,0,0,164.62,31a46.38,46.38,0,0,0-47.89,0h0a25.3,25.3,0,0,0-8.8-8c-8.63-4.56-20-4-33.78,1.91l-3.23,1.33,2.4,2.49c1.66,1.66,6,6.8,6.48,10.54v.17c.66,5.14,2.07,15.1,15.1,23.32a51.63,51.63,0,0,0-.66,8c0,9,.91,18.59,5,26.72a18.33,18.33,0,0,0-3.65,1.83c-5.81,3.73-9.8,10.78-11.87,20.91-2.16,10.54-.09,18.18,2.57,25.56h0a75.94,75.94,0,0,0-6,16.18c-.59-.33-2.66-2-3.24-2.32a6.39,6.39,0,0,0,2.16-5.64c-.34-1.66-1.75-4.48-7.89-4.65-1.41-.08-5.56-.17-6.47,2.9-.25.83-.75,2.66,2.9,6.23a9.46,9.46,0,0,1-5.06-1.49,2.35,2.35,0,0,0-3.07.74l-.08.17S59.46,158.05,59.55,157.89ZM176.15,41c3.74-5.06,10.87-10.71,24.48-11h.25c-1.82,2.49-3.65,5.65-4.06,8.72v.16c-.58,4.49-1.66,12.2-11.54,19a46.42,46.42,0,0,0-7.05-14.36A32,32,0,0,0,176.15,41Zm-7.47-7.22a20,20,0,0,1,7.06-6.39c5-2.66,11.2-3.16,18.5-1.58-10.87,1.58-17.42,6.72-21.24,11.7C171.59,36.14,170.09,34.89,168.68,33.73Zm-81.5-8c7.39-1.58,13.53-1.08,18.51,1.58a20,20,0,0,1,7.06,6.39c-1.5,1.16-2.91,2.41-4.32,3.73C104.61,32.48,98.06,27.34,87.18,25.76ZM96,57.88c-9.88-6.81-11-14.52-11.54-19v-.16c-.41-3-2.24-6.23-4.06-8.72-.08-.08-.08-.16-.17-.25l.42.25c10,.17,17.67,3.16,22.9,9.05A18,18,0,0,1,105.11,41c-.66.83-1.33,1.66-2,2.57A48.62,48.62,0,0,0,96,57.88ZM225,83.94c0,.14-.06.27-.08.41a4.54,4.54,0,0,1-.41,1.08v.09a6.94,6.94,0,0,1-.58,1,7.44,7.44,0,0,1-3,2.57,8.37,8.37,0,0,1-3.74.83,7.32,7.32,0,0,1-2.32-.33,4.51,4.51,0,0,1-1-.33l-1.08-.5-14.19-6.47,11-2a3.74,3.74,0,0,0,2.57-1.75,3.84,3.84,0,0,0,.42-3.15l-2.91-9,11.37,9.71,1.16,1,.5.5a6.1,6.1,0,0,1,1.41,1.82,7.14,7.14,0,0,1,.83,4.15C225,83.69,224.87,83.77,225,83.94Zm-8.54,40.75a32.59,32.59,0,0,0-8.14-15.27l10-15.11a14,14,0,0,0,4.48-1.24,15.41,15.41,0,0,0,1.58-.91l.5-.34a41.88,41.88,0,0,1-3.57,19.09Zm-31,30.29a3.39,3.39,0,0,0-3.41-2.16l-12.11,1.25.33-13.28a3.26,3.26,0,0,0-1-2.57,4.26,4.26,0,0,0-1.32-.83,3.5,3.5,0,0,0-4,1.24l-1.33,1.83-2.4,3.23-.58.75a27.7,27.7,0,1,1,24.73,15.19h-.92l.92-.75a3.25,3.25,0,0,0,1.08-3.9Zm-27,13.69a8.5,8.5,0,0,1-2-1.32,7.37,7.37,0,0,1-1.91-3.41,8.26,8.26,0,0,1,.67-5.89c0-.08.08-.08.08-.16a7.92,7.92,0,0,1,.58-.92l.67-.91,2.4-3.32,1.16-1.66,1.91-2.66.5-.66,2.41-3.24.83-1.08-.25,8.8-.08,2.33a3.85,3.85,0,0,0,1.24,2.9,4,4,0,0,0,3,1l5.14-.58,3.57-.42h0l.67-.08-1.66,1.24-1.33,1.08h0l-.17.08-3.07,2.41-.25.25-2.82,2.16-2.49,2-1.16.91c-.25.17-.42.33-.58.42a5.34,5.34,0,0,1-1.16.66c-.09,0-.17.08-.25.08a5.4,5.4,0,0,1-.67.25,3,3,0,0,1-.83.25h0a6.46,6.46,0,0,1-3.32-.16,2.6,2.6,0,0,1-.83-.34ZM88.26,121.29c1.83-8.8,5.15-14.86,9.8-17.85a13.65,13.65,0,0,1,3.56-1.57c3.74,5.47,9.38,9.87,17.68,12.61a67.11,67.11,0,0,0,21.25,3,76.43,76.43,0,0,0,15-1.33,32.91,32.91,0,0,0,.75,33l-2.83,3.9-1.07,1.49h0a.09.09,0,0,0-.09.09c-.08.08-.08.16-.16.24a14.39,14.39,0,0,0-1.08,1.91,13.11,13.11,0,0,0-.67,1.91h0a4.48,4.48,0,0,0-.83.33c-3.81,1.66-18.92,6.73-29.29-9.79-1.66-3-5.23-11-4.65-17.1h0v-.41h0v-.08a2.37,2.37,0,0,0-4.65-.75c0,.33-.08.66-.08,1h0c-.75,9,5.06,19.25,5.31,19.75l.08.08c6.73,10.87,15.86,14.11,23.66,14.11a28.44,28.44,0,0,0,10.2-1.83l.25,1a11.9,11.9,0,0,0,3.74,6.06,11.63,11.63,0,0,0,2.07,1.41C109.84,188.18,84,142.28,88.26,121.29ZM69.51,154a2.36,2.36,0,0,1,3.15-1.16c1.41.5,2.32,1.66,2,2.74a2,2,0,0,1-.36.79,2,2,0,0,1-2.79.37C70.25,156,69.17,155.06,69.51,154Z" style="fill:#fff"/></g></g></g><g id="Group_3563" data-name="Group 3563"><g id="Group_3563-2" data-name="Group 3563-2"><circle id="Ellipse_355" data-name="Ellipse 355" cx="123.12" cy="62.78" r="4.07" style="fill:#fff"/></g><g id="Group_3564" data-name="Group 3564"><circle id="Ellipse_356" data-name="Ellipse 356" cx="160.05" cy="62.78" r="4.07" style="fill:#fff"/></g></g><g id="Group_3564-2" data-name="Group 3564-2"><g id="Group_3566" data-name="Group 3566"><path id="Path_1642" data-name="Path 1642" d="M116.56,87.18c0,9.62,11,17.51,24.57,17.51s24.56-7.89,24.56-17.51-10.95-17.52-24.56-17.52S116.56,77.55,116.56,87.18Zm4.15,0c0-7.39,9.21-13.45,20.42-13.45s20.41,6,20.41,13.36-9.12,13.36-20.41,13.36S120.71,94.56,120.71,87.18Z" style="fill:#fff"/></g><g id="Group_3569" data-name="Group 3569"><g id="Group_3567" data-name="Group 3567"><path id="Path_1643" data-name="Path 1643" d="M128.76,87c0,2.82,1.5,5.06,3.41,5.15s3.48-2.16,3.48-5-1.49-5.07-3.4-5.15S128.76,84.19,128.76,87Z" style="fill:#fff"/></g><g id="Group_3568" data-name="Group 3568"><path id="Path_1644" data-name="Path 1644" d="M146.61,87.26c0,2.82,1.49,5.06,3.4,5.14s3.48-2.24,3.48-5.06-1.49-5.06-3.4-5.14S146.69,84.44,146.61,87.26Z" style="fill:#fff"/></g></g></g><path d="M182.62,63.11a35.63,35.63,0,0,1,.42,7.72l4.07,1.49s-.09-6.14-.34-6.47A42.5,42.5,0,0,0,182.62,63.11Z" style="fill:#fff"/><path d="M166.05,136.23H164l1.08-7h2.07Zm1.25-8.8h-2.08l.25-1.91h2.08Z" style="fill:#fff"/><path d="M175.76,133.49h-2.07l.66-4.48H171l-.67,4.48h-2.07l1.58-10.71h2.07l-.66,4.65h3.4l.66-4.65h2.08Z" style="fill:#fff"/><path d="M185.56,129.67a4.34,4.34,0,0,1-1.5,3,4.61,4.61,0,0,1-3,1,3.25,3.25,0,0,1-2.65-1.08,3.63,3.63,0,0,1-.67-2.9l.42-3a4.35,4.35,0,0,1,1.49-3,4.63,4.63,0,0,1,3-1,3.29,3.29,0,0,1,2.66,1.08,3.36,3.36,0,0,1,.66,2.9Zm-1.66-3a2.67,2.67,0,0,0-.17-1.74,1.51,1.51,0,0,0-1.25-.58,1.7,1.7,0,0,0-1.41.58,4.27,4.27,0,0,0-.74,1.74l-.42,3a2.48,2.48,0,0,0,.17,1.83,1.32,1.32,0,0,0,1.24.58,1.74,1.74,0,0,0,1.41-.58,2.81,2.81,0,0,0,.75-1.75Z" style="fill:#fff"/><path d="M188.71,131.91h4l-.25,1.58h-6.05L188,122.78H190Z" style="fill:#fff"/><path d="M198.92,131.16h-2.66l-.91,2.33h-2.16l4.65-10.71h2.07l1.41,10.71h-2.15Zm-2-1.57h1.82l-.41-3.41h-.09Z" style="fill:#fff"/><path d="M204.23,133.49h-2.08l.25-1.83h2.08Zm.58-3.65h-2.08l1.08-7h2.08Z" style="fill:#fff"/><text transform="translate(274.33 107.19)" style="font-size:25px;fill:#fff;font-family:Roboto-Bold, Roboto;font-weight:700">Cambiando pa<tspan x="161.44" y="0" style="letter-spacing:-0.0146484375em">r</tspan><tspan x="170.19" y="0">adigmas </tspan><tspan x="0" y="30">del negocio de la carne</tspan></text></g></g></svg>