<svg xmlns="http://www.w3.org/2000/svg" viewBox="0 0 136.69 79.03"><g id="Capa_2" data-name="Capa 2"><g id="Capa_1-2" data-name="Capa 1"><path d="M67.2,73.47a2,2,0,0,1-2,2.09l-11.07-.07,2.57-5.1,3.7,0A1.36,1.36,0,0,0,61.79,69l-.09-1.43.69-3.35c.83.22,1.68.42,2.53.58s1.64.29,2.48.4l-.57,2.73Z" style="fill:#d47d57"/><path d="M103.13,67.49h0l-2.44,6.64a2.19,2.19,0,0,1-2,1.43H90.52A2.19,2.19,0,0,1,88.37,73L91,60l.3-.16a25,25,0,0,0,4.41,2.62l-1.41,7.06a.79.79,0,0,0,.77.94h1a.78.78,0,0,0,.73-.52L99,63.86a20.17,20.17,0,0,1,3.31,1.6A2.54,2.54,0,0,1,103.13,67.49Z" style="fill:#d47d57"/><path d="M136.67,16.26a2.61,2.61,0,0,0-2.45-2.56h-.1a2.46,2.46,0,0,0-2.41,2.54c0,.41-.11.82-.12,1.22,0,.23,0,.45,0,.68,0,.06,0,.17,0,.22a12.45,12.45,0,0,1-.56,2.26,11.1,11.1,0,0,1-1.16,2.27,5.18,5.18,0,0,0-2.38-5.1,3.06,3.06,0,0,0-3.63.59,5.47,5.47,0,0,0-1.17,3.26,10.88,10.88,0,0,0,0,2.55.59.59,0,0,1-.48.65H122a.58.58,0,0,1-.54-.37l-.07-.17a24.52,24.52,0,0,0-3.33-8.09C108.8,3,96.77,0,87.81,0Q87,0,86.31,0A46.23,46.23,0,0,0,69,4.13,26.35,26.35,0,0,1,57.76,6.71c-.87,0-1.38,0-1.39,0h-.12q-3.84-.29-7.36-.28a61.8,61.8,0,0,0-16.51,2,30.6,30.6,0,0,0-4.74,1.71,1.78,1.78,0,0,1-.75.16,1.87,1.87,0,0,1-1-.29,23.18,23.18,0,0,0-3.17-1.69,25,25,0,0,0-10-2,28.74,28.74,0,0,0-5.18.48l-.33.06a2.32,2.32,0,0,0-1.57,3.48L12.14,21a3.39,3.39,0,0,1,.2,3.14c-.46,1-1,2.26-1.65,3.51-2.61,5.24-4,6.48-4.3,6.72l-3,.93A4.78,4.78,0,0,0,.07,40.62l1.62,9.45A5.21,5.21,0,0,0,6.82,54.4q.3,0,.6,0l9-1,.59,0a5.13,5.13,0,0,1,2.42.6A27.67,27.67,0,0,0,32.2,57.06a26.63,26.63,0,0,0,6.08-.71c1.35,4.79,1.23,6.86,1.07,7.62L35.74,76.84A1.71,1.71,0,0,0,37.39,79l9.5,0h0a1.71,1.71,0,0,0,1.53-1l9.57-19a32.92,32.92,0,0,0,6.69,2,34.91,34.91,0,0,0,6.64.63,42,42,0,0,0,21.35-6.2,24.21,24.21,0,0,0,7.93,4.57A26.29,26.29,0,0,1,105,62.21c1.83,1.13,2.52,3.54,2,7.15a26.35,26.35,0,0,1-1.66,6.08l-.47,1.08A1.77,1.77,0,0,0,106.51,79h10.4a2.43,2.43,0,0,0,2.44-2.36l.47-13.82a16.47,16.47,0,0,0-2.11-8.63l-.57-1a1.51,1.51,0,0,1,0-1.4,43.6,43.6,0,0,0,5.17-20.48,1.43,1.43,0,0,1,1.1-1.41,6.27,6.27,0,0,0,1-.33.58.58,0,0,1,.19,0,.53.53,0,0,1,.34.13h0a3.46,3.46,0,0,0,2.38.9,4.53,4.53,0,0,0,1.31-.2,9.54,9.54,0,0,0,4.31-3.16A16,16,0,0,0,136.67,16.26Zm-25.06,35a2.56,2.56,0,0,0,0,2.49l1.68,3a11.26,11.26,0,0,1,1.43,5.87l-.36,10.57a.75.75,0,0,1-.75.73h-1.68a.52.52,0,0,1-.5-.65c1.18-4.64,1.89-11.9-3.77-15.4a31.39,31.39,0,0,0-5.17-2.47,19.75,19.75,0,0,1-6.41-3.62,41.17,41.17,0,0,1-7.44-9.48A2.55,2.55,0,1,0,84.29,45a60.56,60.56,0,0,0,4.76,6.8,36.34,36.34,0,0,1-17.61,4.92,30.26,30.26,0,0,1-5.53-.51,27,27,0,0,1-9.29-3.51l-2.06-9.28a2.55,2.55,0,0,0-5,1.1L52,55.53a8,8,0,0,1-.67,5.37L45,73.53a.7.7,0,0,1-.63.39H42.79a.71.71,0,0,1-.68-.9l2.17-7.75,0-.11c.66-2.88-.08-7.4-2.25-13.82-.78-2.32-1.6-4.42-2.22-5.94a2.56,2.56,0,0,0-2.37-1.59,2.59,2.59,0,0,0-1,.22,2.55,2.55,0,0,0-1.32,3.29c.46,1.12,1,2.56,1.59,4.15a20.56,20.56,0,0,1-4.48.49,21.89,21.89,0,0,1-6.35-1,20.81,20.81,0,0,1-5.59-2.57,2.57,2.57,0,0,0-1.51-.49h-.29L6.84,49.3h0a.11.11,0,0,1-.11-.09L5.15,40.05l3.17-1L8.48,39c1.36-.64,3.34-2.23,6.71-9,1.74-3.47,3-6.69,3.08-6.83a2.56,2.56,0,0,0-.18-2.27L13,12.5a.77.77,0,0,1,.66-1.18h0A17.7,17.7,0,0,1,24.74,15.4a2.4,2.4,0,0,0,1.78.78,2.43,2.43,0,0,0,1.56-.56l0,0c.31-.22,6.07-4.12,20.91-4.12,2.09,0,4.36.07,6.83.25.22,0,.92.09,2,.09A31.21,31.21,0,0,0,71.23,8.71h0A41.42,41.42,0,0,1,86.5,5.13l1.38,0c10.74,0,19.49,4.73,26.05,14.06v0C114,19.31,122.56,31.55,111.61,51.28Z" style="fill:#d47d57"/></g></g></svg>