<svg xmlns="http://www.w3.org/2000/svg" viewBox="0 0 19.95 20"><g id="Capa_2" data-name="Capa 2"><g id="Capa_1-2" data-name="Capa 1"><path d="M0,20l1.43-5.35a9.93,9.93,0,1,1,4,3.91Zm5.64-3.45.34.21A8,8,0,1,0,3.23,14l.21.34-.8,3Z" style="fill:#fff"/><path d="M13.75,11.25a1.71,1.71,0,0,0-1.42-.32c-.36.15-.6.73-.84,1a.34.34,0,0,1-.45.1,6.4,6.4,0,0,1-3.2-2.74.38.38,0,0,1,0-.53,2.13,2.13,0,0,0,.58-.95,2.07,2.07,0,0,0-.26-1.11,2.61,2.61,0,0,0-.82-1.24,1.12,1.12,0,0,0-1.23.18,2.48,2.48,0,0,0-.86,2,3.38,3.38,0,0,0,.07.63A5.45,5.45,0,0,0,6,9.64c.2.33.41.65.63.95a9.79,9.79,0,0,0,2.72,2.53,8,8,0,0,0,1.7.8,3.7,3.7,0,0,0,2,.31,2.37,2.37,0,0,0,1.79-1.33,1.13,1.13,0,0,0,.08-.68C14.76,11.76,14.13,11.48,13.75,11.25Z" style="fill:#fff;fill-rule:evenodd"/></g></g></svg>